<?xml version="1.0" encoding="UTF-8"?>
<svg id="Capa_2" data-name="Capa 2" xmlns="http://www.w3.org/2000/svg" viewBox="0 0 15.45 15.48">
  <defs>
    <style>
      .cls-1 {
        fill: #1d1d1b;
      }
    </style>
  </defs>
  <g id="Capa_2-2" data-name="Capa 2">
    <g>
      <path class="cls-1" d="M14.54,6.05h-.7c-.16,0-.31-.1-.36-.25-.08-.25-.19-.49-.3-.74-.07-.14-.05-.31.06-.42l.51-.51c.17-.17.26-.4.26-.65s-.09-.48-.26-.65l-1.11-1.12c-.17-.17-.4-.27-.64-.27s-.47.09-.64.27l-.51.51c-.07.07-.16.1-.25.1-.06,0-.11-.01-.17-.04-.24-.12-.49-.22-.73-.3-.16-.06-.26-.19-.26-.35v-.72c0-.5-.41-.91-.91-.91h-1.57c-.5,0-.91.41-.91.91v.72c0,.16-.1.3-.25.35-.25.08-.49.19-.74.31-.05.03-.11.04-.17.04-.1,0-.19-.04-.25-.1l-.51-.52c-.17-.17-.4-.26-.65-.26s-.48.1-.65.26l-1.12,1.11c-.17.17-.26.4-.26.65s.09.48.26.65l.51.51c.11.11.13.28.06.42-.12.24-.22.49-.3.73-.06.16-.2.26-.36.26h-.7c-.5,0-.91.41-.91.91v1.57c0,.5.41.91.91.91h.69c.16,0,.31.1.36.26.08.26.19.51.31.75.07.14.05.31-.06.42l-.5.49c-.17.17-.27.4-.27.65s.09.47.27.64l1.12,1.11c.17.17.4.26.65.26s.48-.1.65-.26l.49-.49c.07-.07.16-.1.25-.1.06,0,.11.01.17.04.25.12.49.22.75.31.16.06.27.2.27.37v.67c0,.5.41.91.91.91h1.56c.5,0,.91-.4.91-.9v-.67c0-.17.11-.31.27-.37.26-.09.51-.19.75-.31.05-.03.11-.04.17-.04.09,0,.18.04.25.1l.49.49c.17.17.4.26.64.26s.47-.09.64-.27l1.11-1.11c.17-.17.27-.4.27-.64s-.09-.47-.27-.64l-.49-.5c-.11-.11-.14-.28-.06-.43.11-.25.22-.49.3-.74.06-.16.2-.26.36-.26h.69c.5,0,.91-.41.91-.91v-1.57c0-.5-.41-.91-.91-.91ZM12.43,9.34c-.08.21-.16.42-.25.61-.28.57-.17,1.26.28,1.72l.34.34-.8.8-.33-.33c-.28-.28-.66-.44-1.06-.44-.23,0-.46.05-.67.16-.2.1-.4.19-.61.25-.62.21-1.03.79-1.03,1.44v.45h-1.13v-.45c0-.65-.41-1.23-1.04-1.44-.21-.07-.41-.16-.61-.25-.21-.1-.43-.15-.65-.15h-.01c-.39,0-.76.16-1.03.44l-.33.33-.8-.8.34-.34c.46-.45.57-1.14.29-1.72-.1-.2-.19-.4-.25-.61-.2-.62-.78-1.04-1.43-1.04h-.47v-1.13h.48c.64,0,1.22-.41,1.43-1.02.08-.2.16-.41.26-.6.28-.58.17-1.27-.28-1.72l-.36-.36.8-.81.36.36c.28.28.66.44,1.05.44.23,0,.46-.05.66-.15.19-.09.4-.18.6-.25.61-.21,1.03-.78,1.03-1.42v-.5h1.13v.5c0,.65.41,1.22,1.03,1.42.2.07.4.15.6.25.21.1.44.15.67.15.4,0,.77-.16,1.06-.44l.35-.35.8.8-.36.36c-.46.46-.57,1.15-.28,1.73.1.19.19.39.25.6.21.61.79,1.02,1.43,1.02h.48v1.13h-.47c-.64,0-1.22.42-1.43,1.03Z"/>
      <path class="cls-1" d="M7.74,3.91c-2.11,0-3.83,1.72-3.83,3.83s1.72,3.83,3.83,3.83,3.83-1.72,3.83-3.83-1.72-3.83-3.83-3.83ZM10.6,7.74c0,1.57-1.28,2.86-2.86,2.86s-2.86-1.28-2.86-2.86,1.28-2.86,2.86-2.86,2.86,1.28,2.86,2.86Z"/>
    </g>
  </g>
</svg>