<?xml version="1.0" encoding="UTF-8"?>
<svg id="Capa_2" data-name="Capa 2" xmlns="http://www.w3.org/2000/svg" viewBox="0 0 15.53 15.53">
  <defs>
    <style>
      .cls-1 {
        fill: #fff;
      }
    </style>
  </defs>
  <g id="Object">
    <g>
      <path class="cls-1" d="M7.77,0C3.48,0,0,3.48,0,7.77s3.48,7.77,7.77,7.77,7.77-3.48,7.77-7.77S12.05,0,7.77,0ZM7.77,14.33c-3.62,0-6.57-2.95-6.57-6.57S4.15,1.2,7.77,1.2s6.57,2.95,6.57,6.57-2.95,6.57-6.57,6.57Z"/>
      <path class="cls-1" d="M10.81,6.73l-3.91-2.26c-.41-.23-.89-.23-1.29,0-.4.23-.65.65-.65,1.12v4.51c0,.47.24.89.65,1.12.2.12.42.17.65.17s.44-.06.65-.18l3.91-2.26c.4-.23.65-.65.65-1.12s-.24-.88-.65-1.12ZM10.51,7.26h0s0-.01,0-.01h0ZM6.31,10.19l-.14-.08v-4.51l.14-.08,3.91,2.26v.16l-3.91,2.26Z"/>
    </g>
  </g>
</svg>