<?xml version="1.0" encoding="UTF-8"?>
<svg id="Capa_2" data-name="Capa 2" xmlns="http://www.w3.org/2000/svg" viewBox="0 0 13.06 10.44">
  <g id="Capa_2-2" data-name="Capa 2">
    <g>
      <path d="M5.12,7.17h7.37c.79.14.76,1.23-.06,1.32h-7.29c-.41,1.49-1.99,2.33-3.47,1.77-1.9-.72-2.28-3.28-.65-4.51,1.5-1.13,3.66-.39,4.1,1.42ZM3.92,7.83c0-.72-.58-1.3-1.31-1.3s-1.31.58-1.31,1.3.58,1.3,1.31,1.3,1.31-.58,1.31-1.3Z"/>
      <path d="M7.94,3.26H.57c-.79-.15-.76-1.23.06-1.32h7.29c.46-1.71,2.47-2.51,3.97-1.52s1.56,3.34,0,4.35-3.54.22-3.96-1.52ZM11.76,2.61c0-.72-.58-1.3-1.31-1.3s-1.31.58-1.31,1.3.58,1.3,1.31,1.3,1.31-.58,1.31-1.3Z"/>
    </g>
  </g>
</svg>