<?xml version="1.0" encoding="UTF-8"?>
<svg id="Capa_2" data-name="Capa 2" xmlns="http://www.w3.org/2000/svg" viewBox="0 0 15.53 15.53">
  <defs>
    <style>
      .cls-1 {
        fill: #fff;
      }
    </style>
  </defs>
  <g id="Object">
    <g>
      <path class="cls-1" d="M7.76,15.53C3.48,15.53,0,12.04,0,7.76S3.48,0,7.76,0s7.76,3.48,7.76,7.76-3.48,7.76-7.76,7.76ZM7.76,1.2C4.14,1.2,1.2,4.14,1.2,7.76s2.95,6.57,6.57,6.57,6.56-2.95,6.56-6.57S11.38,1.2,7.76,1.2Z"/>
      <path class="cls-1" d="M9.82,8.24c-.2-.26-.45-.43-.73-.55-.27-.11-.63-.22-1.11-.34v-1.8c.18.06.32.15.42.3.05.04.08.1.1.13,0,0,.02.02.02.03.04.08.07.13.09.17.03.02.05.05.07.07,0,0,0,0,0,0,.06.03.13.06.21.06h.91s.26-.05.18-.32h.02c-.09-.41-.28-.74-.56-.99-.37-.32-.85-.5-1.45-.54h-.62c-.62.05-1.15.25-1.54.6-.4.34-.6.79-.6,1.34,0,.45.11.78.31,1.04.2.25.45.44.74.56.27.1.64.22,1.1.33v1.82c-.35-.07-.56-.27-.66-.57v-.02h0c-.03-.06-.14-.23-.33-.23h-.9s-.18.03-.21.2h0c.05.47.25.84.57,1.12.39.33.9.53,1.54.58h.62c.45-.03.81-.13,1.15-.32.32-.18.57-.42.74-.71.17-.29.26-.6.26-.94,0-.43-.1-.78-.31-1.02ZM7.37,7.16c-.25-.08-.42-.19-.55-.32-.12-.12-.19-.3-.19-.51,0-.24.07-.43.2-.56.13-.13.31-.22.54-.26v1.64ZM8.54,9.89c-.14.14-.32.25-.55.3v-1.67c.25.09.42.19.56.32.12.12.2.3.2.51s-.08.39-.21.55Z"/>
      <rect class="cls-1" x="7.21" y="3.67" width=".93" height="8.34" rx=".41" ry=".41"/>
    </g>
  </g>
</svg>