<?xml version="1.0" encoding="UTF-8"?>
<svg id="Capa_2" data-name="Capa 2" xmlns="http://www.w3.org/2000/svg" viewBox="0 0 113.39 143.01">
  <defs>
    <style>
      .cls-1 {
        fill: #191919;
      }
    </style>
  </defs>
  <g id="Capa_1-2" data-name="Capa 1">
    <path class="cls-1" d="M111.7,98.69s-.13-.61-.42-1.67c-.89-3.21-3.32-10.54-8.55-17.98-5.04-7.02-11.34-11.78-17.42-15.06,6.3-6.8,10.2-15.74,10.2-25.71,0-1.47-.11-2.83-.23-4.19,0,0-.92-8.66-4.47-14.04-.92-1.69-1.96-3.31-3.12-4.83-.01-.01-.01-.02-.03-.03-3.47-4.55-7.97-8.25-13.12-10.88,0,0-8.7-3.5-14.44-4.07-.99-.22-2.08-.23-3.18-.23h-.15c-1.13,0-2.16,0-3.18.22-.01.01-.02.01-.02.01,0,0-9.36,1.01-14.45,4.07-6.98,3.5-12.58,8.93-16.24,15.7-.02.03-.03.04-.03.04,0,0-4.27,8.41-4.47,14.04-.09,1.14-.19,2.27-.22,3.47-.01.24-.01.48-.01.72,0,9.86,3.78,18.8,10.09,25.59-6.19,3.18-12.61,8.04-17.77,15.18,0,0-5.3,8.3-6.76,12.91C1.53,97.83.27,104.63.04,112.67c-.23,3.17.46,6.45,1.95,9.51,4.47,9.51,17.77,20.83,54.67,20.83,40.69,0,52.26-14.15,55.59-22.76,1.03-2.6,1.14-5.09,1.14-7.24-.07-5.23-.66-10-1.69-14.32ZM40.39,19.7c2.75-2.26,5.96-4.07,9.62-5.09,2.07-.68,4.36-1.02,6.76-1.02s4.7.34,6.88,1.02c3.55.9,6.65,2.72,9.4,4.98,3.44,2.94,6.19,6.91,7.56,11.32,0,0,.12.23.12.34.69,2.27,1.03,4.65,1.03,7.02,0,9.18-5.16,17.22-12.72,21.4-3.33,1.82-7.11,2.95-11.12,3.18h-1.15s-.91,0-1.37-.12c-4.01-.11-7.79-1.24-11-3.17-7.45-4.19-12.5-12.23-12.5-21.29,0-2.37.35-4.64,1.04-6.79,0-.11,0-.34.11-.45,1.38-4.42,3.9-8.27,7.34-11.33ZM99.41,115.5c-1.26,3.28-8.14,13.93-42.75,13.93s-40.8-10.08-42.29-13.14c-.46-.91-.69-1.92-.57-3.17.11-8.27,1.83-14.95,4.47-20.38,2.86-6.12,6.99-10.65,11.57-13.93,3.55-2.6,7.34-4.41,11-5.77,1.72.79,3.56,1.47,5.39,1.92h.12c3.2.91,6.64,1.36,10.2,1.36s6.99-.45,10.2-1.36h.11c1.83-.45,3.55-1.02,5.27-1.81,4.13,1.36,7.68,3.17,10.89,5.55h.11c5.16,3.62,9.17,8.38,11.92,14.04,2.75,5.77,4.24,12.57,4.36,20.38h.23c0,1.25-.12,2.04-.23,2.38Z"/>
  </g>
</svg>