<?xml version="1.0" encoding="UTF-8"?>
<svg id="Capa_2" data-name="Capa 2" xmlns="http://www.w3.org/2000/svg" viewBox="0 0 21 21">
  <defs>
    <style>
      .cls-1 {
        fill: #191919;
      }
    </style>
  </defs>
  <g id="Capa_1-2" data-name="Capa 1">
    <g>
      <path class="cls-1" d="M18.52,5.68H2.48c-1.37,0-2.48,1.11-2.48,2.48v10.37c0,1.37,1.11,2.48,2.48,2.48h16.05c1.37,0,2.48-1.11,2.48-2.48v-10.37c0-1.37-1.11-2.48-2.48-2.48ZM19.45,18.52c0,.51-.41.93-.93.93H2.48c-.51,0-.93-.41-.93-.93v-10.37c0-.51.42-.93.93-.93h16.05c.51,0,.93.41.93.93v10.37Z"/>
      <path class="cls-1" d="M10.5,0C6.54,0,3.3,2.91,3.02,6.61h1.65c.28-2.78,2.78-4.96,5.82-4.96s5.55,2.18,5.83,4.96h1.65c-.28-3.69-3.52-6.61-7.48-6.61Z"/>
      <path class="cls-1" d="M12.81,11.7c0-1.26-1.02-2.28-2.28-2.28s-2.28,1.02-2.28,2.28c0,.92.55,1.72,1.34,2.08v2.8h1.88v-2.8c.79-.36,1.34-1.15,1.34-2.08Z"/>
    </g>
  </g>
</svg>