<svg width="21" height="21" viewBox="0 0 21 21" fill="none" xmlns="http://www.w3.org/2000/svg">
<path d="M17.9148 20.26H2.34521C1.05534 20.26 0 19.2033 0 17.9118V2.34823C0 1.0567 1.05534 0 2.34521 0H6.20178C6.87928 0 7.5177 0.287006 7.96068 0.795789L9.6805 2.76569C9.82382 2.93529 10.0453 3.03965 10.2668 3.03965H17.9148C19.2047 3.03965 20.26 4.09636 20.26 5.38788V17.9118C20.26 19.2033 19.2047 20.26 17.9148 20.26ZM2.34521 1.56549C1.91525 1.56549 1.56347 1.91772 1.56347 2.34823V17.9118C1.56347 18.3423 1.91525 18.6945 2.34521 18.6945H17.9148C18.3447 18.6945 18.6965 18.3423 18.6965 17.9118V5.38788C18.6965 4.95737 18.3447 4.60514 17.9148 4.60514H10.2668C9.5893 4.60514 8.95088 4.31813 8.5079 3.7963L6.78808 1.8264C6.64476 1.65681 6.42327 1.55244 6.20178 1.55244H2.34521V1.56549Z" fill="#191919"/>
<path d="M19.1525 7.34473H0.456013V8.91021H19.1525V7.34473Z" fill="#191919"/>
</svg>
