<?xml version="1.0" encoding="UTF-8"?>
<svg id="Capa_2" data-name="Capa 2" xmlns="http://www.w3.org/2000/svg" viewBox="0 0 20.39 15.45">
  <defs>
    <style>
      .cls-1 {
        fill: #fff;
      }
    </style>
  </defs>
  <g id="Object">
    <g>
      <path class="cls-1" d="M6.39,15.45h-2.05c-1.06,0-1.92-.85-1.92-1.9v-7.85h1.2v7.85c0,.39.32.7.72.7h2.05c.4,0,.72-.31.72-.7v-3.51c0-1.03.84-1.84,1.91-1.84h2.33c1.08,0,1.92.81,1.92,1.84v3.47c0,.39.32.7.72.7h2.05c.4,0,.72-.31.72-.7v-7.9h1.2v7.9c0,1.05-.86,1.9-1.92,1.9h-2.05c-1.06,0-1.92-.85-1.92-1.9v-3.47c0-.42-.36-.64-.72-.64h-2.33c-.36,0-.72.22-.72.64v3.51c0,1.05-.85,1.9-1.91,1.9Z"/>
      <path class="cls-1" d="M19.79,8.19c-.13,0-.26-.04-.37-.12L10.76,1.37c-.3-.23-.81-.23-1.1,0L.97,8.03c-.26.2-.64.15-.84-.11-.2-.26-.15-.64.11-.84L8.92.42c.72-.56,1.85-.56,2.57,0l8.66,6.69c.26.2.31.58.11.84-.12.15-.3.23-.47.23Z"/>
    </g>
  </g>
</svg>