<?xml version="1.0" encoding="UTF-8"?>
<svg id="Capa_2" data-name="Capa 2" xmlns="http://www.w3.org/2000/svg" viewBox="0 0 15.54 15.54">
  <defs>
    <style>
      .cls-1 {
        fill: #fff;
      }
    </style>
  </defs>
  <g id="Object">
    <g>
      <path class="cls-1" d="M14.97,14.28H.57c-.31,0-.57.28-.57.63s.26.63.57.63h14.4c.31,0,.57-.28.57-.63s-.26-.63-.57-.63Z"/>
      <path class="cls-1" d="M13.76,1.86c-.01-.08-.04-.17-.07-.26h-.01c0-.06-.03-.1-.05-.15-.08-.17-.2-.34-.37-.51-.14-.15-.32-.3-.55-.45-.23-.15-.45-.26-.65-.33-.24-.1-.46-.15-.66-.15-.06-.01-.11-.01-.16-.01s-.1.01-.15.01c-.1.01-.19.03-.27.05-.04.02-.09.03-.13.05-.04,0-.08.03-.12.05h-.01c-.19.09-.36.21-.49.31-.15.15-.27.28-.34.38-.04.05-.07.09-.08.12-.02.02-.03.04-.03.04-.04.07-.09.14-.13.21l-5.39,8.32c-.08.11-.11.24-.1.38l.16,2.6c.01.19.12.38.29.49.1.06.22.1.34.1.07,0,.15-.02.22-.04l2.43-.92c.13-.05.23-.14.31-.25L13.22,3.45s.01-.01.01-.02l.35-.52.03-.06c.04-.1.08-.2.1-.31.05-.16.08-.34.07-.53-.01-.05-.01-.1-.02-.15ZM12.36,2.46s0,.01-.01.02l-.36.55-.89,1.39-4.3,6.62-1.44.54-.09-1.53,4.29-6.63.89-1.36s0-.01.01-.02l.35-.55c.16-.13.37-.21.59-.21.12,0,.23.02.33.06l.36.23s.01,0,.01.01c.17.17.28.41.28.68,0,.07-.01.13-.02.2Z"/>
    </g>
  </g>
</svg>