<?xml version="1.0" encoding="UTF-8"?>
<svg id="Capa_2" data-name="Capa 2" xmlns="http://www.w3.org/2000/svg" viewBox="0 0 15.55 15.54">
  <defs>
    <style>
      .cls-1 {
        fill: #fff;
      }
    </style>
  </defs>
  <g id="Object">
    <path class="cls-1" d="M13.06,0H2.5C1.13,0,.02,1.11.02,2.48v.67c-.01.07-.02.14-.02.22v10.51c0,.64.35,1.21.93,1.49.23.12.48.17.73.17.36,0,.72-.12,1.02-.35l4.81-3.71c.16-.13.39-.13.56,0l4.81,3.71c.5.39,1.17.46,1.75.18.57-.28.93-.85.93-1.49v-3.22c.01-.06.01-.12.01-.18V2.48c0-1.37-1.11-2.48-2.49-2.48ZM14.34,13.88c0,.26-.18.37-.26.41-.08.04-.28.11-.49-.05l-4.81-3.71c-.6-.46-1.43-.46-2.03,0l-4.81,3.71c-.2.16-.41.09-.48.05-.08-.04-.26-.15-.26-.41V3.37s0-.06.02-.09v-.8c0-.28.09-.54.25-.75.22-.32.6-.53,1.03-.53h10.56c.43,0,.81.21,1.05.53.15.21.24.47.24.75v8c0,.06,0,.13-.01.19v3.21Z"/>
  </g>
</svg>