<?xml version="1.0" encoding="UTF-8"?>
<svg id="Capa_2" data-name="Capa 2" xmlns="http://www.w3.org/2000/svg" viewBox="0 0 12.95 15.54">
  <defs>
    <style>
      .cls-1 {
        fill: #1d1d1b;
      }
    </style>
  </defs>
  <g id="Capa_2-2" data-name="Capa 2">
    <path class="cls-1" d="M7.11,1.35c2.24.26,4.19,2.14,4.49,4.38.15,1.07-.05,2.25.04,3.33.06.78.77.96,1.11,1.55.55.96-.1,2.23-1.19,2.33-.8.07-1.69-.05-2.5,0,.03,1.09-.73,2.13-1.76,2.47-1.69.55-3.42-.7-3.41-2.47-.81-.05-1.7.07-2.5,0-.93-.08-1.57-1.04-1.34-1.94s1.19-1.09,1.25-1.94c.1-1.24-.16-2.58.13-3.8.49-2.05,2.31-3.66,4.4-3.9.03-.46-.17-1.25.48-1.34.93-.13.8.69.8,1.34ZM6.04,2.61c-1.75.16-3.21,1.65-3.43,3.37-.18,1.42.36,3.43-.58,4.55-.13.16-.65.59-.71.71-.1.23.08.45.32.43h9.64c.25,0,.36-.19.28-.43-.52-.59-1.12-1.13-1.19-1.97-.07-.93.06-1.96,0-2.91-.13-2.3-2.02-3.98-4.33-3.76ZM5.21,12.94c-.07,0-.01.27,0,.32.3,1.3,2.22,1.3,2.52,0,.02-.08.06-.27,0-.32h-2.51Z"/>
  </g>
</svg>