<?xml version="1.0" encoding="UTF-8"?>
<svg id="Capa_2" data-name="Capa 2" xmlns="http://www.w3.org/2000/svg" viewBox="0 0 15.55 15.53">
  <defs>
    <style>
      .cls-1 {
        fill: #fff;
      }
    </style>
  </defs>
  <g id="Object">
    <g>
      <path class="cls-1" d="M13.75,15.53H1.8c-.99,0-1.8-.81-1.8-1.8V1.8C0,.81.81,0,1.8,0h2.96c.52,0,1.01.22,1.35.61l1.32,1.51c.11.13.28.21.45.21h5.87c.99,0,1.8.81,1.8,1.8v9.6c0,.99-.81,1.8-1.8,1.8ZM1.8,1.2c-.33,0-.6.27-.6.6v11.93c0,.33.27.6.6.6h11.95c.33,0,.6-.27.6-.6V4.13c0-.33-.27-.6-.6-.6h-5.87c-.52,0-1.01-.22-1.35-.62l-1.32-1.51c-.11-.13-.28-.21-.45-.21H1.8Z"/>
      <rect class="cls-1" x=".35" y="5.63" width="14.35" height="1.2"/>
    </g>
  </g>
</svg>