<?xml version="1.0" encoding="UTF-8"?>
<svg id="Capa_2" data-name="Capa 2" xmlns="http://www.w3.org/2000/svg" viewBox="0 0 15.55 15.55">
  <defs>
    <style>
      .cls-1 {
        fill: #fff;
      }
    </style>
  </defs>
  <g id="Object">
    <g>
      <path class="cls-1" d="M8.44,15.55h-1.32c-.88,0-1.6-.72-1.6-1.6v-6.57c0-.88.72-1.6,1.6-1.6h1.32c.88,0,1.6.72,1.6,1.6v6.57c0,.88-.72,1.6-1.6,1.6ZM7.11,6.98c-.22,0-.4.18-.4.4v6.57c0,.22.18.4.4.4h1.32c.22,0,.4-.18.4-.4v-6.57c0-.22-.18-.4-.4-.4h-1.32Z"/>
      <path class="cls-1" d="M2.92,15.55h-1.32C.72,15.55,0,14.84,0,13.95v-3.39c0-.88.72-1.6,1.6-1.6h1.32c.88,0,1.6.72,1.6,1.6v3.39c0,.88-.72,1.6-1.6,1.6ZM1.6,10.16c-.22,0-.4.18-.4.4v3.39c0,.22.18.4.4.4h1.32c.22,0,.4-.18.4-.4v-3.39c0-.22-.18-.4-.4-.4h-1.32Z"/>
      <path class="cls-1" d="M13.95,15.55h-1.32c-.88,0-1.6-.72-1.6-1.6V1.6c0-.88.72-1.6,1.6-1.6h1.32c.88,0,1.6.72,1.6,1.6v12.35c0,.88-.72,1.6-1.6,1.6ZM12.63,1.2c-.22,0-.4.18-.4.4v12.35c0,.22.18.4.4.4h1.32c.22,0,.4-.18.4-.4V1.6c0-.22-.18-.4-.4-.4h-1.32Z"/>
      <path class="cls-1" d="M.55,6.93c-.19,0-.37-.1-.47-.27-.15-.26-.07-.6.19-.75L8.86.84c.26-.16.6-.07.75.19.15.26.07.6-.19.75L.83,6.86c-.09.05-.18.08-.28.08Z"/>
      <path class="cls-1" d="M9.39,3.27s-.07,0-.1,0c-.3-.05-.5-.34-.44-.64l.21-1.17-1.26-.36c-.29-.08-.46-.39-.38-.68.08-.29.38-.46.68-.38l2.15.61-.03.54-.3,1.63c-.05.27-.28.45-.54.45Z"/>
    </g>
  </g>
</svg>