<?xml version="1.0" encoding="UTF-8"?>
<svg id="Capa_2" data-name="Capa 2" xmlns="http://www.w3.org/2000/svg" viewBox="0 0 15.53 15.53">
  <defs>
    <style>
      .cls-1 {
        fill: #fff;
      }
    </style>
  </defs>
  <g id="Object">
    <g>
      <path class="cls-1" d="M7.76,15.53C3.48,15.53,0,12.04,0,7.76S3.48,0,7.76,0s7.76,3.48,7.76,7.76-3.48,7.76-7.76,7.76ZM7.76,1.2C4.14,1.2,1.2,4.14,1.2,7.76s2.95,6.57,6.57,6.57,6.56-2.95,6.56-6.57S11.38,1.2,7.76,1.2Z"/>
      <g>
        <path class="cls-1" d="M7.76,10.93c-.33,0-.6-.27-.6-.6v-5.13c0-.33.27-.6.6-.6s.6.27.6.6v5.13c0,.33-.27.6-.6.6Z"/>
        <path class="cls-1" d="M10.33,8.36h-5.13c-.33,0-.6-.27-.6-.6s.27-.6.6-.6h5.13c.33,0,.6.27.6.6s-.27.6-.6.6Z"/>
      </g>
    </g>
  </g>
</svg>